<svg width="22" height="22" viewBox="0 0 22 22" fill="none" xmlns="http://www.w3.org/2000/svg">
<path id="Vector" d="M17.1357 21.3923C16.239 21.3923 14.9794 21.068 13.0931 20.0142C10.7994 18.7279 9.02533 17.5404 6.74399 15.2651C4.5445 13.067 3.47416 11.6438 1.97611 8.91779C0.283776 5.83998 0.572264 4.22661 0.894745 3.53711C1.27878 2.71299 1.84565 2.22006 2.57838 1.73081C2.99453 1.45816 3.43496 1.2244 3.89403 1.03256C3.93996 1.01283 3.98266 0.993969 4.02081 0.976994C4.24823 0.874531 4.59276 0.719744 5.02916 0.885119C5.32041 0.99445 5.58041 1.21814 5.98742 1.62012C6.82213 2.44332 7.96278 4.27666 8.38356 5.17708C8.6661 5.78389 8.85305 6.18451 8.85353 6.63378C8.85353 7.15979 8.58893 7.56539 8.2678 8.0032C8.20765 8.08541 8.14788 8.16394 8.09005 8.24024C7.7404 8.69961 7.6637 8.83239 7.71423 9.06939C7.8167 9.54578 8.58061 10.9639 9.83615 12.2166C11.0916 13.4694 12.4689 14.1851 12.947 14.2871C13.1942 14.3399 13.3297 14.26 13.8038 13.8979C13.8718 13.8461 13.9416 13.7923 14.0146 13.7386C14.5044 13.3743 14.8912 13.1166 15.4047 13.1166H15.4075C15.8545 13.1166 16.2371 13.3104 16.8711 13.6302C17.6979 14.0473 19.5865 15.1732 20.4147 16.0088C20.8176 16.4149 21.0422 16.674 21.152 16.9648C21.3175 17.4026 21.1617 17.7457 21.0602 17.9754C21.0432 18.0136 21.0244 18.0554 21.0046 18.1018C20.8113 18.56 20.5762 18.9995 20.3022 19.4147C19.8139 20.1451 19.3191 20.7106 18.4931 21.0951C18.069 21.2958 17.6048 21.3974 17.1357 21.3923Z" fill="#121212"/>
</svg>
